<svg viewBox="0 0 800 600" xmlns="http://www.w3.org/2000/svg">
  <defs>
    <filter id="shadow">
      <feDropShadow dx="0" dy="2" stdDeviation="4" flood-opacity="0.1"/>
    </filter>
  </defs>
  
  <!-- Container -->
  <rect width="800" height="600" fill="#F8FAFC" rx="8" filter="url(#shadow)"/>
  
  <!-- Centered Content -->
  <g transform="translate(400,250)">
    <!-- Background circle -->
    <circle r="80" fill="#5B4DA7" opacity="0.1"/>
    
    <!-- Centered and scaled reload icon -->
    <g transform="translate(-35,-35) scale(0.20)">
      <path fill="#5B4DA7" d="M62.772,95.042C90.904,54.899,137.496,30,187.343,30c83.743,0,151.874,68.13,151.874,151.874h30 C369.217,81.588,287.629,0,187.343,0c-35.038,0-69.061,9.989-98.391,28.888C70.368,40.862,54.245,56.032,41.221,73.593 L2.081,34.641v113.365h113.91L62.772,95.042z M381.667,235.742h-113.91l53.219,52.965c-28.132,40.142-74.724,65.042-124.571,65.042 c-83.744,0-151.874-68.13-151.874-151.874h-30c0,100.286,81.588,181.874,181.874,181.874c35.038,0,69.062-9.989,98.391-28.888 c18.584-11.975,34.707-27.145,47.731-44.706l39.139,38.952V235.742z"/>
    </g>
  </g>
  
  <!-- Text -->
  <text x="400" y="350" text-anchor="middle" fill="#64748B" font-size="16" font-family="sans-serif" font-weight="500">
    No data available
  </text>
  <text x="400" y="380" text-anchor="middle" fill="#94A3B8" font-size="14" font-family="sans-serif">
    Click to reload
  </text>
</svg>